<svg width="30" height="14" viewBox="0 0 30 14" fill="none" xmlns="http://www.w3.org/2000/svg">
<path d="M3.24996 13.8534H0L4.95185 0H8.85949L13.8035 13.8534H10.5535L6.96139 3.16574H6.84899L3.24996 13.8534ZM3.04685 8.40812H10.7221V10.6944H3.04685V8.40812ZM15.4738 13.8534V3.46337H18.3658V5.2762H18.4782C18.6744 4.63132 19.0028 4.14435 19.4653 3.8151C19.9277 3.48137 20.4601 3.3146 21.0616 3.3146C21.2115 3.3146 21.3722 3.32355 21.5448 3.34165C21.7183 3.35965 21.8702 3.38441 22.0003 3.41603V5.97298C21.8603 5.93232 21.6671 5.89632 21.4196 5.8647C21.1721 5.83317 20.9453 5.81736 20.7402 5.81736C20.3014 5.81736 19.909 5.90984 19.5629 6.0947C19.2227 6.27509 18.9515 6.52758 18.7514 6.85226C18.5551 7.17703 18.4565 7.55123 18.4565 7.97515V13.8534H15.4738ZM29.8038 3.46337V5.62793H23.3256V3.46337H29.8038ZM24.7967 0.974132H27.7795V10.6606C27.7795 10.9267 27.8219 11.1341 27.9057 11.2829C27.9895 11.4273 28.1068 11.5287 28.2557 11.5873C28.4095 11.646 28.587 11.6753 28.7882 11.6753C28.9282 11.6753 29.0682 11.664 29.2082 11.6415C29.3482 11.6143 29.4557 11.5941 29.5307 11.5805L30 13.7249C29.8501 13.7699 29.6401 13.8218 29.3689 13.8804C29.0988 13.9436 28.7694 13.9819 28.3819 13.9954C27.6631 14.0225 27.033 13.93 26.4907 13.7181C25.9543 13.5061 25.5362 13.177 25.2375 12.7305C24.9387 12.2841 24.7918 11.7203 24.7967 11.0395V0.974132Z" fill="#E0A449"/>
</svg>
